<?xml version="1.0" encoding="iso-8859-1"?><svg viewBox="0 0 596 596" xmlns="http://www.w3.org/2000/svg" xmlns:xlink="http://www.w3.org/1999/xlink"><style>:root>svg{display:none}:root>svg:target{display:block}</style><svg viewBox="0 0 512 512" id="arrow-right" xmlns="http://www.w3.org/2000/svg"><path d="M506.134 241.843l-.018-.019-104.504-104c-7.829-7.791-20.492-7.762-28.285.068-7.792 7.829-7.762 20.492.067 28.284L443.558 236H20c-11.046 0-20 8.954-20 20s8.954 20 20 20h423.557l-70.162 69.824c-7.829 7.792-7.859 20.455-.067 28.284 7.793 7.831 20.457 7.858 28.285.068l104.504-104 .018-.019c7.833-7.818 7.808-20.522-.001-28.314z"/></svg><svg viewBox="0 0 512 512" id="call" xmlns="http://www.w3.org/2000/svg"><path d="M500.977 255.5c0 135.84-110.122 245.957-245.961 245.957S9.055 391.34 9.055 255.5 119.175 9.54 255.015 9.54 500.978 119.66 500.978 255.5zm0 0" fill="#ff6c6c"/><path d="M326.875 186.172a235.704 235.704 0 00-41.18-10.004 226.454 226.454 0 00-30.215-2.453c-15.855-.215-31.66 1.277-47.09 4.558-36.968 7.86-71.777 26-99.952 55.575a78.096 78.096 0 00-1.848 1.902c-19.25 20.727-18.05 53.121 2.676 72.371a50.969 50.969 0 006.992 5.453c6.332 1.934 15.773.172 20.98-3.914l45.95-36.039c8.312-6.52 10.996-18.121 5.972-27.414-.062-.11-.12-.219-.18-.328-1.984-3.606-.507-8.11 3.25-9.79a148.637 148.637 0 0155.157-12.816 148.468 148.468 0 0155.898 8.704c3.875 1.398 5.676 5.785 3.961 9.53l-.152.34c-4.328 9.63-.793 20.997 7.972 26.88l52.743 35.41a14.573 14.573 0 0016.976-.532c2.332-1.722 4.535-3.722 6.574-5.914 18.633-20.066 18.121-51.125-.77-70.523a96.011 96.011 0 00-1.905-1.848 88.177 88.177 0 00-1.985-1.761c-5.086-4.606-8.09-6.754-13.5-10.739 0 0-27.043-20.082-46.324-26.648zm0 0" fill="#fff"/><path d="M437.02 74.98C388.668 26.63 324.379 0 256 0c-53.316 0-104.418 16.23-147.781 46.938-4.524 3.203-5.594 9.472-2.39 13.996 3.202 4.523 9.468 5.593 13.995 2.39C159.777 35.035 206.864 20.078 256 20.078c63.016 0 122.262 24.543 166.82 69.102 44.559 44.558 69.098 103.804 69.098 166.82s-24.54 122.262-69.098 166.82C378.262 467.38 319.016 491.918 256 491.918s-122.262-24.54-166.82-69.098C44.62 378.262 20.078 319.016 20.078 256c0-47 13.781-92.39 39.852-131.254 3.09-4.605 1.863-10.844-2.743-13.93-4.605-3.093-10.843-1.863-13.93 2.743C14.958 155.746 0 205 0 256c0 68.379 26.629 132.668 74.98 181.02C123.332 485.37 187.621 512 256 512s132.668-26.629 181.02-74.98C485.37 388.668 512 324.379 512 256c0-68.383-26.629-132.668-74.98-181.02zm0 0"/><path d="M319.848 437.918c-20.602 6.164-42.059 9.48-63.77 9.852-21.715.363-43.265-2.207-64.062-7.668-5.368-1.403-10.852 1.8-12.262 7.164-1.406 5.363 1.8 10.851 7.164 12.257 21.152 5.555 43.02 8.36 65.066 8.36 1.477 0 2.957-.012 4.438-.035 23.547-.403 46.82-4 69.18-10.692 5.312-1.59 8.332-7.187 6.742-12.5-1.59-5.308-7.184-8.332-12.496-6.738zm0 0M82.902 271.625c.606 16.348 7.543 31.48 19.532 42.613a60.791 60.791 0 008.375 6.532c.78.503 1.629.898 2.515 1.168 2.68.82 5.64 1.21 8.688 1.21 7.672 0 15.879-2.476 21.425-6.824l45.946-36.043c11.554-9.062 15.457-24.457 9.847-37.52 15.41-6.476 31.715-10.07 48.528-10.69 16.789-.626 33.3 1.757 49.129 7.074-4.633 13.437.39 28.496 12.582 36.683l52.742 35.406a24.598 24.598 0 0028.61-.84c2.757-2.042 5.413-4.437 7.894-7.109 22.234-23.941 21.824-60.996-.934-84.36l-.12-.12a90.31 90.31 0 00-2.141-2.075 99.443 99.443 0 00-2.157-1.918c-5.086-4.597-8.304-6.968-13.172-10.546l-1.007-.739c-1.157-.859-28.54-21.105-49.075-28.093-13.972-4.754-28.382-8.262-42.832-10.414l-3.406-.583c-25.984-4.421-52.133-3.476-77.726 2.813-40.458 8.637-76.727 28.816-104.907 58.363a84.974 84.974 0 00-2.008 2.074c-11.132 11.985-16.93 27.59-16.328 43.938zm31.047-30.281c.535-.578 1.074-1.121 1.614-1.664l.144-.145c25.422-26.683 58.195-44.902 94.773-52.68.106-.023.211-.046.313-.074 22.953-5.66 46.406-6.515 69.71-2.55l3.509.597.207.035a225.76 225.76 0 0139.422 9.578c17.546 5.973 43.316 25.012 43.605 25.227l1.05.773c4.704 3.461 7.294 5.364 11.665 9.325.05.043.16.136.207.18.559.488 1.121.972 1.687 1.5.555.515 1.075 1.03 1.598 1.546 15.23 15.696 15.477 40.555.547 56.63-1.656 1.784-3.398 3.355-5.18 4.671l-.14.105a4.525 4.525 0 01-5.274.164l-52.742-35.41c-4.773-3.199-6.668-9.406-4.383-14.492l.094-.21a17.161 17.161 0 00.234-13.755 17.002 17.002 0 00-9.867-9.383c-19.18-6.93-39.273-10.066-59.726-9.308-20.473.758-40.297 5.367-58.926 13.703a17.006 17.006 0 00-9.149 10.082 17.175 17.175 0 001.239 13.684l.148.273c2.625 4.852 1.192 11.188-3.336 14.738l-45.949 36.04c-2.356 1.851-7.352 2.937-10.691 2.46a41.665 41.665 0 01-4.254-3.457c-8.059-7.484-12.723-17.656-13.13-28.644-.406-10.988 3.493-21.477 10.981-29.54zm0 0M355.156 417.941l-.601.254c-5.102 2.172-7.477 8.067-5.305 13.168a10.04 10.04 0 009.242 6.114 9.976 9.976 0 003.926-.805l.602-.254c5.101-2.172 7.476-8.07 5.304-13.172-2.172-5.101-8.066-7.476-13.168-5.305zm0 0M79.71 95.133a9.974 9.974 0 003.911-.797l.602-.254c5.105-2.164 7.488-8.059 5.324-13.16-2.164-5.106-8.055-7.492-13.16-5.328l-.602.254c-5.105 2.164-7.488 8.058-5.324 13.16 1.621 3.828 5.34 6.125 9.25 6.125zm0 0"/></svg><svg viewBox="0 0 512.012 512.012" id="communication" xmlns="http://www.w3.org/2000/svg"><path d="M333.201 115.038c-28.905-59.021-89.37-98.042-157.193-98.042-97.047 0-176 78.505-176 175 0 26.224 5.63 51.359 16.742 74.794L.299 349.055c-2.094 10.472 7.144 19.728 17.618 17.656l83.279-16.465a172.546 172.546 0 0034.732 12.151c-26.717-126.541 69.199-245.321 197.273-247.359z"/><path d="M495.266 394.79a174.485 174.485 0 007.511-18.514h-.549c37.448-109.917-41.305-225.441-157.567-231.066l-.005-.018c-100.036-4.61-183.148 75.486-183.148 174.804 0 96.414 78.361 174.857 174.743 174.997 26.143-.035 51.201-5.663 74.568-16.747 91.207 18.032 84.094 16.75 86.189 16.75 9.479 0 16.56-8.686 14.709-17.941z"/></svg><svg viewBox="0 0 512 512" id="contacts" xmlns="http://www.w3.org/2000/svg"><circle cx="436" cy="316" r="45"/><path d="M436 361c-41.353 0-75 33.647-75 75 0 8.291 6.709 15 15 15h121c8.291 0 15-6.709 15-15 0-41.353-34.647-75-76-75z"/><circle cx="76" cy="106" r="45"/><path d="M0 226c0 8.291 6.709 15 15 15h121c8.291 0 15-6.709 15-15 0-41.353-33.647-75-75-75S0 184.647 0 226zM371.558 353.729C365.016 342.602 361 329.813 361 316c0-5.136.529-10.151 1.518-15H136c-8.291 0-15 6.709-15 15v120c0 8.291 6.709 15 15 15h197.763c-1.681-4.715-2.763-9.716-2.763-15 0-33.492 16.057-63.03 40.558-82.271zM166 390.998c-8.286 0-15-6.716-15-15s6.714-15 15-15c8.284 0 15 6.716 15 15s-6.716 15-15 15zm60 0c-8.286 0-15-6.716-15-15s6.714-15 15-15c8.284 0 15 6.716 15 15s-6.716 15-15 15zm60 0c-8.286 0-15-6.716-15-15s6.714-15 15-15c8.284 0 15 6.716 15 15s-6.716 15-15 15zM391 226V106c0-8.291-6.709-15-15-15H149.482A74.989 74.989 0 01151 106c0 13.813-4.016 26.602-10.558 37.729C164.943 162.97 181 192.508 181 226c0 5.284-1.082 10.285-2.763 15H376c8.291 0 15-6.709 15-15zm-165-45.002c-8.286 0-15-6.716-15-15s6.714-15 15-15c8.284 0 15 6.716 15 15s-6.716 15-15 15zm60 0c-8.286 0-15-6.716-15-15s6.714-15 15-15c8.284 0 15 6.716 15 15s-6.716 15-15 15zm60 0c-8.286 0-15-6.716-15-15s6.714-15 15-15c8.284 0 15 6.716 15 15s-6.716 15-15 15z"/></svg><svg viewBox="0 0 512 512" id="gmail" xmlns="http://www.w3.org/2000/svg"><g fill="#ece5dd"><circle cx="256" cy="256" r="247.916"/><circle cx="256" cy="256" r="247.916"/></g><path d="M503.916 256c0-69.097-28.279-131.582-73.881-176.541L288.337 191.326l-43.116 10.779-140.126-97.011L69.12 93.103a249.088 249.088 0 00-13.626 17.091l310.089 368.23C447.535 437.971 503.916 353.576 503.916 256z" fill="#d9cbbd"/><path d="M503.916 256c0-54.903-17.86-105.626-48.068-146.708l-17.145 13.453v300.817c40.49-44.126 65.213-102.954 65.213-167.562z" fill="#ac2201"/><path d="M411.07 62.58L262.126 175.239a10.154 10.154 0 01-12.251 0L100.93 62.58a249.327 249.327 0 00-45.414 47.584l194.216 152.382a10.152 10.152 0 0012.536 0l194.216-152.382A249.296 249.296 0 00411.07 62.58z" fill="#cd2900"/><path d="M73.297 423.562V122.745l-17.145-13.453C25.944 150.374 8.084 201.097 8.084 256c0 64.608 24.723 123.436 65.213 167.562z" fill="#ac2201"/><path d="M437.019 74.981C388.667 26.628 324.379 0 256 0S123.333 26.628 74.982 74.981C26.628 123.333 0 187.62 0 256s26.628 132.667 74.982 181.019C123.333 485.372 187.62 512 256 512s132.667-26.628 181.019-74.981C485.372 388.667 512 324.379 512 256s-26.628-132.667-74.981-181.019zM256 16.168c53.148 0 102.304 17.389 142.103 46.759L256 170.411 113.897 62.927C153.696 33.557 202.852 16.168 256 16.168zM64.674 400.443C34.246 360.238 16.168 310.193 16.168 256c0-49.856 15.297-96.202 41.436-134.606l7.069 5.547v273.502zm284.675-205.674a8.085 8.085 0 0010.707.644l71.102-55.788v280.013c-43.8 46.854-106.112 76.193-175.158 76.193s-131.358-29.339-175.158-76.193V139.625l170.167 133.513a8.074 8.074 0 004.991 1.725 8.07 8.07 0 004.991-1.725l67.859-53.242c3.815-2.993 4.155-8.648.727-12.077a8.083 8.083 0 00-10.707-.643L256 256.503 67.149 108.331a241.975 241.975 0 0133.664-35.027l150.31 113.691a8.085 8.085 0 009.754 0L411.188 73.303a242.027 242.027 0 0133.664 35.027l-94.777 74.362c-3.815 2.994-4.155 8.648-.726 12.077zm97.977-67.829l7.069-5.547c26.139 38.404 41.436 84.751 41.436 134.606 0 54.193-18.077 104.238-48.505 144.443V126.94z"/></svg><svg viewBox="0 0 512 512" id="gmailcomm" xmlns="http://www.w3.org/2000/svg"><circle cx="256" cy="256" fill="#2cc47f" r="256"/><path d="M512 256c0-10.504-.633-20.861-1.862-31.033L435 149.829 77 377.098l130.27 130.27A257.343 257.343 0 00256 512c141.385 0 256-114.615 256-256z" fill="#06b26b"/><path d="M108.344 135.987h295.778l3.984 252.265H103.894L90.181 169.32z" fill="#fff"/><path d="M404.122 135.987H256v252.265h152.107l2.001-211.601z" fill="#e9edf5"/><path d="M408.106 388.252V178.376c0-1.627-.888-3.15-2.337-3.891-1.545-.79-3.045-.677-4.455.338L256 296.819 110.686 174.823c-1.409-1.015-2.909-1.128-4.455-.338-1.449.74-2.337 2.263-2.337 3.89v209.878c-20.987 0-38-17.013-38-38v-171.95c0-15.944 8.815-30.365 23.005-37.635 14.191-7.27 31.044-6.001 43.985 3.313L256 250l123.116-106.019c13.088-9.42 30.179-10.611 44.467-3.062 14.032 7.413 22.523 22.281 22.523 38.151v171.183c0 20.986-17.013 37.999-38 37.999z" fill="#ff583e"/><path d="M423.584 140.919c-14.288-7.548-31.379-6.357-44.467 3.062L256 249.896v46.821l145.314-121.894c1.41-1.015 2.91-1.128 4.455-.338 1.449.741 2.337 2.263 2.337 3.891v209.876c20.987 0 38-17.013 38-38V179.07c0-15.87-8.491-30.738-22.522-38.151z" fill="#f92814"/></svg><svg viewBox="0 0 447.632 447" id="language" xmlns="http://www.w3.org/2000/svg"><path d="M231.816 447.05c34.23-4.863 64.239-40.59 83.121-93.35a406.317 406.317 0 00-83.12-9.786zm0 0M286.504 438.66c2.023-.586 4.039-1.176 6.039-1.824 1.687-.543 3.352-1.129 5.016-1.711a203.39 203.39 0 005.882-2.121c1.664-.633 3.313-1.305 4.965-1.977 1.906-.8 3.809-1.597 5.692-2.398a240.401 240.401 0 0010.422-4.922c1.601-.816 3.199-1.648 4.8-2.504 1.793-.96 3.575-1.941 5.344-2.95a203.403 203.403 0 004.703-2.753c1.735-1.066 3.461-2.133 5.176-3.2a191.535 191.535 0 004.578-2.991 221.095 221.095 0 005.008-3.504 417.693 417.693 0 004.422-3.2 365.942 365.942 0 004.847-3.793c1.426-1.136 2.848-2.265 4.25-3.433 1.598-1.328 3.13-2.703 4.68-4.078 1.36-1.207 2.727-2.403 4.055-3.64 1.527-1.427 3.015-2.903 4.504-4.368 1.289-1.273 2.593-2.527 3.855-3.832.235-.242.457-.504.7-.754a268.883 268.883 0 00-54.817-21.094 198.517 198.517 0 01-51.129 83.024c.649-.168 1.297-.305 1.945-.473 1.711-.48 3.391-1.008 5.063-1.504zm0 0M447.633 231.684H351.71a414.882 414.882 0 01-16.152 110.68 278.228 278.228 0 0160.714 24.16 223.51 223.51 0 0051.36-134.84zm0 0M231.816 215.684h103.895a400.208 400.208 0 00-15.75-106.743 421.384 421.384 0 01-88.145 10.512zm0 0M231.816.316v103.137a406.589 406.589 0 0083.121-9.785C296.055 40.906 266.048 5.18 231.817.316zm0 0M231.816 327.914a421.648 421.648 0 0188.145 10.516 400.236 400.236 0 0015.75-106.746H231.816zm0 0M396.273 80.844a278.228 278.228 0 01-60.714 24.16 414.882 414.882 0 0116.152 110.68h95.922a223.577 223.577 0 00-51.36-134.84zm0 0M385.465 68.707c-.235-.238-.457-.496-.688-.742-1.265-1.305-2.578-2.563-3.867-3.832-1.484-1.465-2.965-2.945-4.496-4.367-1.324-1.235-2.695-2.403-4.055-3.633-1.55-1.375-3.101-2.762-4.695-4.09-1.383-1.168-2.8-2.285-4.207-3.406a171.24 171.24 0 00-4.89-3.825 220.477 220.477 0 00-4.383-3.199 192.844 192.844 0 00-5.055-3.547 200.251 200.251 0 00-4.535-2.957 190.441 190.441 0 00-5.219-3.257 223.26 223.26 0 00-4.664-2.727 220.848 220.848 0 00-5.39-2.984c-1.602-.801-3.2-1.672-4.801-2.473-1.84-.93-3.696-1.824-5.598-2.703a174.071 174.071 0 00-4.875-2.227c-1.895-.84-3.809-1.597-5.719-2.398a225.094 225.094 0 00-4.953-1.969 191.214 191.214 0 00-5.879-2.117 210.272 210.272 0 00-5.016-1.715c-2-.648-4-1.238-6.054-1.832-1.664-.488-3.336-.984-5.02-1.43-.644-.175-1.3-.312-1.949-.48a198.532 198.532 0 0151.129 83.023 268.485 268.485 0 0054.879-21.113zm0 0M0 215.684h95.922a415.035 415.035 0 0116.148-110.68 277.885 277.885 0 01-60.71-24.16A223.519 223.519 0 000 215.684zm0 0M215.816 447.05V343.915a406.589 406.589 0 00-83.12 9.785c18.878 52.762 48.89 88.488 83.12 93.352zm0 0M215.816 231.684H111.922a400.079 400.079 0 0015.75 106.746 421.097 421.097 0 0188.144-10.516zm0 0M215.816.316c-34.23 4.864-64.242 40.59-83.12 93.352a406.045 406.045 0 0083.12 9.785zm0 0M215.816 119.453a421.384 421.384 0 01-88.144-10.512 400.05 400.05 0 00-15.75 106.743h103.894zm0 0M168.113 6.79c-.648.167-1.297.304-1.945.472-1.695.453-3.367.957-5.055 1.445-2.008.586-4 1.176-6.015 1.816-1.7.551-3.371 1.137-5.043 1.72-1.957.69-3.918 1.378-5.856 2.112-1.672.641-3.32 1.305-4.976 1.985-1.903.8-3.809 1.601-5.688 2.398-1.648.723-3.277 1.48-4.91 2.242a223.908 223.908 0 00-5.512 2.68 228.526 228.526 0 00-10.137 5.457 149.244 149.244 0 00-4.718 2.75c-1.738 1.047-3.457 2.13-5.168 3.2-1.54.984-3.067 1.976-4.578 3a221.095 221.095 0 00-5.008 3.503 403.614 403.614 0 00-4.426 3.203c-1.637 1.23-3.2 2.512-4.848 3.79-1.421 1.136-2.855 2.265-4.246 3.44-1.601 1.321-3.12 2.688-4.664 4.056-1.367 1.218-2.746 2.402-4.082 3.664-1.52 1.418-3 2.89-4.484 4.351-1.29 1.274-2.602 2.531-3.867 3.84-.23.242-.453.508-.696.754a268.581 268.581 0 0054.817 21.098 198.45 198.45 0 0151.105-82.977zm0 0M66.719 383.234c1.488 1.465 2.969 2.946 4.496 4.371 1.328 1.23 2.695 2.399 4.058 3.63 1.551 1.378 3.102 2.761 4.696 4.09 1.383 1.16 2.793 2.28 4.207 3.405 1.601 1.297 3.199 2.586 4.894 3.833 1.442 1.082 2.907 2.128 4.371 3.203 1.672 1.199 3.36 2.398 5.063 3.55a214.813 214.813 0 004.535 2.961c1.73 1.11 3.457 2.2 5.219 3.254 1.543.93 3.101 1.84 4.664 2.73a208.275 208.275 0 005.39 2.981c1.598.801 3.2 1.672 4.801 2.473 1.84.93 3.696 1.824 5.598 2.707 1.601.754 3.226 1.496 4.875 2.223 1.894.84 3.805 1.597 5.719 2.398 1.648.672 3.289 1.336 4.953 1.969 1.941.746 3.91 1.441 5.879 2.12 1.664.583 3.328 1.169 5.015 1.712 2 .648 4 1.242 6.055 1.832 1.664.488 3.336.984 5.016 1.433.648.176 1.304.313 1.953.48a198.57 198.57 0 01-51.13-83.027 268.607 268.607 0 00-54.816 21.106c.235.238.458.496.692.742 1.2 1.297 2.492 2.555 3.797 3.824zm0 0M51.36 366.523a278.275 278.275 0 0160.71-24.16 415.035 415.035 0 01-16.148-110.68H0a223.552 223.552 0 0051.36 134.84zm0 0"/></svg><svg fill="#282833" viewBox="0 0 512 512" id="send" xmlns="http://www.w3.org/2000/svg"><path d="M187 390c0-112.968.1-126.93 0-126.98-.2-.06-3.28-.02-42.53-.02-8.1 0-15.09-6.22-15.45-14.31-.39-8.59 6.47-15.69 14.98-15.69 39.66 0 42.8.04 43-.02.1-.05 0-12.775 0-110.98 0-8.28 6.72-15 15-15h169.02C331.44 65.81 276.11 41 216 41 96.9 41 0 137.45 0 256s96.9 215 216 215c60.08 0 115.42-24.79 155.02-66H202c-8.28 0-15-6.72-15-15zm-59-221h23.53c8.1 0 15.09 6.22 15.45 14.31.39 8.59-6.47 15.69-14.98 15.69h-23.53c-8.1 0-15.09-6.22-15.45-14.31-.39-8.59 6.47-15.69 14.98-15.69zm16 158H96.47c-8.1 0-15.09-6.22-15.45-14.31C80.63 304.1 87.49 297 96 297h47.53c8.1 0 15.09 6.22 15.45 14.31.39 8.59-6.47 15.69-14.98 15.69z"/><path d="M491.77 137H236.212l129.652 99.956z"/><path d="M375.327 267.748a15 15 0 01-18.485.131L217 160.069V360c0 8.284 6.716 15 15 15h265c8.284 0 15-6.716 15-15V159.244z"/></svg><svg viewBox="0 0 478.44 478.44" id="skills" xmlns="http://www.w3.org/2000/svg"><path d="M239.152 119.157c-87.196 0-145.639 91.053-108.807 170.523 27.699 59.766 99.585 86.108 159.335 58.414 59.767-27.697 86.108-99.585 58.415-159.334-20.315-43.833-63.682-69.603-108.943-69.603zm-44.275 139.418a8 8 0 01-11.313 11.314l-25.012-25.012a8.003 8.003 0 010-11.314l25.012-25.012a8.002 8.002 0 0111.313 0 7.999 7.999 0 010 11.314l-19.355 19.354zm71.238-49.298l-40 68a8 8 0 01-13.791-8.113l40-68a8.002 8.002 0 0110.952-2.839 8 8 0 012.839 10.952zm52.774 35.6l-25.012 25.013a8 8 0 01-11.313-11.314l19.355-19.355-19.355-19.354a7.999 7.999 0 010-11.314 8.001 8.001 0 0111.313 0l25.012 25.012a8 8 0 010 11.312z"/><path d="M461.15 319.51l-37.6-29.39c9.141-33.117 9.158-68.623 0-101.8l37.6-29.39a8.001 8.001 0 002-10.3l-33.51-58.04c-2-3.46-6.23-4.91-9.92-3.42l-44.31 17.88c-24.38-24.77-54.64-42.26-88.1-50.92l-6.66-47.25A7.986 7.986 0 00272.73 0h-67.02c-3.99 0-7.37 2.93-7.92 6.88l-6.66 47.25c-33.46 8.66-63.72 26.15-88.1 50.92l-44.3-17.88a8.017 8.017 0 00-9.93 3.42l-33.51 58.04a8.001 8.001 0 002 10.3l37.6 29.39c-9.141 33.117-9.158 68.623 0 101.8l-37.6 29.39a8.001 8.001 0 00-2 10.3l33.51 58.04c2 3.45 6.23 4.91 9.93 3.42l44.3-17.88c24.38 24.77 54.64 42.26 88.1 50.92l6.66 47.25a7.986 7.986 0 007.92 6.88h67.02c3.99 0 7.37-2.93 7.92-6.88l6.66-47.25c33.46-8.66 63.72-26.15 88.1-50.92l44.31 17.88c3.69 1.49 7.92.03 9.92-3.42l33.51-58.04a8.001 8.001 0 00-2-10.3zm-164.742 43.102c-32.765 15.186-69.669 16.616-103.915 4.062-70.862-25.978-106.718-103.284-80.727-174.18 26.254-71.613 104.41-106.57 174.266-80.963 34.107 12.505 61.303 37.542 76.579 70.501 31.42 67.793 1.572 149.167-66.203 180.58z"/></svg><svg viewBox="0 0 512 512" id="telegram" xmlns="http://www.w3.org/2000/svg"><circle cx="256" cy="256" r="247.916" fill="#59aae7"/><path d="M256 8.084c-10.96 0-21.752.72-32.337 2.099C345.304 26.029 439.242 130.04 439.242 256s-93.939 229.971-215.579 245.817A250.202 250.202 0 00256 503.916c136.921 0 247.916-110.996 247.916-247.916S392.921 8.084 256 8.084z" fill="#3d9ae3"/><path d="M167.573 309.4l-79.955-39.978c-2.191-1.096-2.213-4.216-.037-5.342l303.756-157.115c2.231-1.154 4.807.786 4.315 3.249l-52.298 261.49a2.997 2.997 0 01-4.119 2.167l-71.075-30.46a2.993 2.993 0 00-2.635.135l-91.844 51.024c-1.997 1.109-4.452-.334-4.452-2.619v-79.87a2.997 2.997 0 00-1.656-2.681z" fill="#fcfcfc"/><path d="M202.069 336.347l-.497-79.825a1.46 1.46 0 01.697-1.253l129.671-79.214c1.47-.898 3.008 1.049 1.794 2.271l-98.682 99.383c-.109.11-.201.236-.269.375l-16.88 33.757-13.082 25.168c-.703 1.351-2.743.859-2.752-.662z" fill="#d8d7da"/><path d="M437.019 74.981C388.667 26.628 324.379 0 256 0S123.333 26.628 74.981 74.981 0 187.62 0 256s26.628 132.667 74.981 181.019C123.333 485.372 187.62 512 256 512s132.667-26.628 181.019-74.981C485.372 388.667 512 324.379 512 256s-26.628-132.667-74.981-181.019zM256 495.832C123.756 495.832 16.168 388.244 16.168 256S123.756 16.168 256 16.168 495.832 123.756 495.832 256 388.244 495.832 256 495.832z"/><path d="M352.42 282.405l-16.162 80.808-66.295-28.412a8.092 8.092 0 00-7.111.363l-85 47.223v-72.492a8.085 8.085 0 00-4.469-7.231l-72.015-36.007 283.53-146.654-24.605 123.023c-1 5.003 2.826 9.67 7.928 9.67a8.088 8.088 0 007.928-6.499l27.903-139.517a8.085 8.085 0 00-11.641-8.765L79.822 259.599a8.086 8.086 0 00.098 14.412l81.764 40.88v81.006c0 2.12.721 4.218 2.18 5.757a8.109 8.109 0 005.905 2.557 8.072 8.072 0 003.927-1.018l93.544-51.969 71.597 30.684c1.523.653 3.209.923 4.839.619a8.097 8.097 0 006.485-6.372l18.115-90.577c1-5.003-2.826-9.67-7.928-9.67a8.081 8.081 0 00-7.928 6.497z"/><path d="M200.247 350.099a8.085 8.085 0 009.088-4.252l31.75-63.5 106.862-106.862a8.083 8.083 0 00-9.954-12.6l-140.126 86.232a8.084 8.084 0 00-3.847 6.885v86.232a8.084 8.084 0 006.227 7.865zm9.942-89.582l77.636-47.777-59.101 59.101a8.094 8.094 0 00-1.513 2.101l-17.022 34.043v-47.468z"/></svg><svg viewBox="0 0 512 512" id="telegramcomm" xmlns="http://www.w3.org/2000/svg"><circle cx="256" cy="256" r="256" fill="#7aa5da"/><path d="M511.924 250.077L398.283 136.625l-185.108 225.63 133.284 133.284C443.197 458.988 512 365.535 512 256c0-1.981-.031-3.955-.076-5.923z" fill="#5786b5"/><path d="M383.717 133.52c10.206-3.982 20.756 4.948 18.515 15.67l-45.77 218.781c-2.138 10.257-14.188 14.877-22.635 8.671l-69.094-50.717-35.219 35.961c-6.189 6.31-16.86 3.741-19.515-4.672l-25.41-80.662-68.112-20.118c-8.947-2.638-9.464-15.084-.793-18.48L383.717 133.52zm-33.599 48.545c2.982-2.638-.483-7.292-3.862-5.189l-147.015 91.177a6.681 6.681 0 00-2.862 7.671l20.049 88.04c.397 1.345 2.327 1.155 2.5-.241l4.482-67.094a6.634 6.634 0 012.207-4.275l124.501-110.089z" fill="#fff"/><path d="M346.257 176.876c3.379-2.103 6.844 2.551 3.862 5.189l-124.5 110.089a6.643 6.643 0 00-2.207 4.275l-4.482 67.094c-.172 1.396-2.103 1.586-2.5.241l-20.049-88.04a6.68 6.68 0 012.862-7.671l147.014-91.177z" fill="#9ec2e5"/><path d="M217.154 364.678c-3.241-1.155-5.982-3.741-7.154-7.465l-25.41-80.662-68.112-20.118c-8.947-2.638-9.464-15.084-.793-18.48L383.717 133.52c6.585-2.569 13.326.241 16.653 5.448a14.418 14.418 0 00-2.189-2.603L216.343 284.81v6.499l-1-.724 1 40.926v32.823c.259.121.534.224.81.31v.034h.001z" fill="#fff"/><g fill="#d1d1d1"><path d="M402.525 145.518a14.972 14.972 0 01-.293 3.672l-45.77 218.781c-2.138 10.257-14.188 14.877-22.635 8.671l-69.094-50.717-48.39-34.616v-6.499l181.838-148.446a14.377 14.377 0 012.189 2.603c.121.207.241.396.362.586.103.207.224.414.328.603.103.207.207.414.293.621.103.224.19.431.276.655.069.19.155.396.224.621.224.672.396 1.362.517 2.086.069.448.121.897.155 1.379z"/><path d="M264.733 325.925l-35.219 35.961c-.293.293-.603.586-.914.845-.31.259-.621.483-.948.707l-.017.017c-.655.431-1.327.793-2.034 1.086-.362.138-.707.276-1.069.362-1.5.448-3.034.569-4.551.414a12.614 12.614 0 01-1.172-.172c-.052 0-.103-.017-.155-.034a27.035 27.035 0 01-1.138-.328 1.535 1.535 0 01-.362-.138l-.81-33.133V291.31l48.389 34.615z"/></g><g fill="#dadde0"><path d="M228.6 362.73c-.31.259-.621.5-.948.724v-.017c.328-.224.638-.448.948-.707zM227.652 363.437v.017s0-.017-.017 0l.017-.017zM225.601 364.541a12.146 12.146 0 002.034-1.086c-.655.43-1.345.792-2.034 1.086zM219.981 365.316c1.517.155 3.051.034 4.551-.414a10.962 10.962 0 01-4.344.448.42.42 0 01-.207-.034z"/></g><g fill="#fff"><path d="M221.205 365.402zM219.981 365.316a.443.443 0 00.207.034 6.736 6.736 0 01-1.034-.138c.275.053.551.087.827.104z"/></g><g fill="#dadde0"><path d="M219.981 365.316a6.843 6.843 0 01-.827-.103 1.969 1.969 0 01-.345-.069c.379.069.775.138 1.172.172zM217.516 364.782c.379.121.759.224 1.138.328l-.465-.103c-.069-.017-.138-.034-.19-.069a2.635 2.635 0 01-.483-.156z"/></g><g fill="#fff"><path d="M218.188 365.006l.465.103a2.219 2.219 0 01-.465-.103zM217.516 364.782c.155.069.328.121.483.155a4.527 4.527 0 01-.776-.241c.103.034.189.069.293.086z"/></g><path d="M217.516 364.782c-.103-.017-.19-.052-.293-.086-.017.017-.052 0-.069-.017v-.034c.12.068.241.102.362.137z" fill="#dadde0"/><path d="M216.343 331.511l.81 33.133a6.573 6.573 0 01-.81-.31v-32.823z" fill="#d1d1d1"/><path fill="#dadde0" d="M216.343 291.309v40.202l-1-40.926z"/><path d="M350.118 182.065l-124.5 110.089a6.643 6.643 0 00-2.207 4.275l-4.474 67.1c-.172 1.396-2.103 1.586-2.517.241l-20.04-88.045a6.68 6.68 0 012.862-7.671l147.015-91.177c3.379-2.104 6.844 2.551 3.861 5.188z" fill="#adbcc9"/></svg><svg viewBox="-21 0 512 512" id="top" xmlns="http://www.w3.org/2000/svg"><path d="M352 234.668c0 11.73-9.602 21.332-21.332 21.332-3.203 0-6.188-.64-8.961-1.922l-87.039-40.746-87.043 40.746c-2.773 1.281-5.758 1.922-8.957 1.922-11.734 0-21.336-9.602-21.336-21.332 0-3.203.64-5.977 1.922-8.746l96-213.336C218.454 5.12 225.922 0 234.668 0c8.746 0 16.21 5.121 19.41 12.586l96 213.336c1.281 2.77 1.922 5.543 1.922 8.746zm0 0"/><path d="M234.668 512C105.281 512 0 406.719 0 277.332c0-71.144 31.66-137.469 86.89-181.95 9.196-7.425 22.614-5.933 29.997 3.22 7.379 9.175 5.93 22.613-3.242 29.996-45.102 36.351-70.977 90.539-70.977 148.734 0 105.856 86.121 192 192 192 105.875 0 192-86.144 192-192 0-58.195-25.879-112.383-70.977-148.715-9.195-7.379-10.625-20.82-3.242-29.992 7.422-9.152 20.84-10.645 29.992-3.223 55.235 44.461 86.891 110.786 86.891 181.93C469.332 406.719 364.055 512 234.668 512zm0 0"/></svg><svg viewBox="0 0 512.007 512.007" id="viber" xmlns="http://www.w3.org/2000/svg"><circle cx="256.003" cy="256.003" r="256.003" fill="#41b4e6"/><path d="M396.054 115.946c-12.916-12.916-30.759-20.905-50.468-20.905H166.415c-39.418 0-71.373 31.954-71.373 71.373v179.171c0 19.709 7.989 37.552 20.905 50.468l114.698 114.698c8.342.82 16.798 1.249 25.356 1.249 141.385 0 255.999-114.615 256-256 0-8.557-.429-17.014-1.249-25.356L396.054 115.946z" fill="#0091c8"/><path d="M345.585 416.958h-179.17c-39.418 0-71.373-31.954-71.373-71.373v-179.17c0-39.418 31.954-71.373 71.373-71.373h179.171c39.418 0 71.373 31.954 71.373 71.373v179.171c-.001 39.418-31.955 71.372-71.374 71.372z" fill="#6e64c3"/><g fill="#fff"><path d="M233.688 227.433a11.494 11.494 0 002.414-16.125l-12.124-16.289a8.832 8.832 0 00-12.544-1.67 1797.29 1797.29 0 01-7.106 5.567 16.902 16.902 0 00-5.449 19.249 142.729 142.729 0 0082.084 83.187c7.803 3.027 16.659-.104 20.803-7.375l4.658-8.176a8.828 8.828 0 00-2.747-11.698l-14.836-9.968a11.5 11.5 0 00-8.836-1.694 11.5 11.5 0 00-7.356 5.188l-1.392 2.255a4.313 4.313 0 01-6.034 1.344 123.12 123.12 0 01-35.665-35.73 4.311 4.311 0 011.098-5.859c.934-.671 1.97-1.426 3.032-2.206zM311.42 248.46a4.437 4.437 0 01-4.436-4.436c0-29.2-23.756-52.956-52.956-52.956a4.437 4.437 0 010-8.872c34.092 0 61.828 27.737 61.828 61.828a4.435 4.435 0 01-4.436 4.436z"/><path d="M297.519 248.46a4.437 4.437 0 01-4.436-4.436c0-21.535-17.52-39.054-39.054-39.054a4.437 4.437 0 010-8.872c26.427 0 47.927 21.5 47.927 47.927a4.437 4.437 0 01-4.437 4.435z"/><path d="M283.864 248.46a4.437 4.437 0 01-4.436-4.436c0-14.005-11.395-25.4-25.4-25.4a4.437 4.437 0 010-8.872c18.898 0 34.273 15.375 34.273 34.273a4.437 4.437 0 01-4.437 4.435z"/><path d="M366.185 222.096c0-44.436-36.022-80.458-80.458-80.458h-56.964c-45.797 0-82.922 37.125-82.922 82.922v35.768c0 35.333 22.108 65.485 53.238 77.428v28.095a8.054 8.054 0 005.215 7.512 8.056 8.056 0 008.862-2.257l24.164-27.855h48.408c44.436 0 80.458-36.022 80.458-80.458v-40.697zm-18.731 40.697c0 34.036-27.69 61.726-61.726 61.726h-42.911l-33.065 38.45a1.584 1.584 0 01-2.786-1.032v-41.234c-24.696-8.944-42.393-32.629-42.393-60.374v-35.768c0-35.395 28.796-64.191 64.191-64.191h56.965c34.036 0 61.726 27.69 61.726 61.726v40.697z"/></g></svg><svg viewBox="0 0 24 24" id="work" xmlns="http://www.w3.org/2000/svg"><path d="M15 6.5a1 1 0 01-1-1V4h-4v1.5a1 1 0 01-2 0V4c0-1.103.897-2 2-2h4c1.103 0 2 .897 2 2v1.5a1 1 0 01-1 1zM12.71 15.38a2.191 2.191 0 01-1.48-.02L0 11.62v7.63C0 20.77 1.23 22 2.75 22h18.5c1.52 0 2.75-1.23 2.75-2.75v-7.63z"/><path d="M24 7.75v2.29l-11.76 3.92c-.08.03-.16.04-.24.04s-.16-.01-.24-.04L0 10.04V7.75C0 6.23 1.23 5 2.75 5h18.5C22.77 5 24 6.23 24 7.75z"/></svg></svg>